<svg width="24" height="24" viewBox="0 0 24 24" fill="none" xmlns="http://www.w3.org/2000/svg">
<path d="M3.33982 16.9998C2.91709 16.2688 2.58848 15.4873 2.36182 14.6738C2.85512 14.4229 3.26941 14.0404 3.55885 13.5687C3.84828 13.097 4.00158 12.5544 4.00179 12.0009C4.002 11.4475 3.8491 10.9048 3.56002 10.4328C3.27094 9.96088 2.85694 9.57809 2.36382 9.32682C2.81585 7.69231 3.67655 6.19977 4.86482 4.98982C5.32891 5.29155 5.86744 5.45898 6.42079 5.4736C6.97415 5.48822 7.52077 5.34945 8.00015 5.07265C8.47952 4.79586 8.87297 4.39182 9.13694 3.90526C9.40092 3.41871 9.52512 2.8686 9.49582 2.31582C11.1379 1.89145 12.861 1.89213 14.5028 2.31782C14.4738 2.87059 14.5982 3.42061 14.8624 3.90703C15.1266 4.39345 15.5202 4.7973 15.9996 5.07388C16.4791 5.35047 17.0258 5.48901 17.5791 5.47417C18.1324 5.45934 18.6709 5.2917 19.1348 4.98982C19.7138 5.57982 20.2278 6.25082 20.6598 6.99982C21.0928 7.74882 21.4168 8.52982 21.6378 9.32582C21.1445 9.57672 20.7302 9.9592 20.4408 10.4309C20.1514 10.9027 19.9981 11.4453 19.9978 11.9987C19.9976 12.5522 20.1505 13.0949 20.4396 13.5668C20.7287 14.0388 21.1427 14.4216 21.6358 14.6728C21.1838 16.3073 20.3231 17.7999 19.1348 19.0098C18.6707 18.7081 18.1322 18.5407 17.5788 18.526C17.0255 18.5114 16.4789 18.6502 15.9995 18.927C15.5201 19.2038 15.1267 19.6078 14.8627 20.0944C14.5987 20.5809 14.4745 21.131 14.5038 21.6838C12.8617 22.1082 11.1386 22.1075 9.49682 21.6818C9.52586 21.1291 9.40141 20.579 9.13724 20.0926C8.87306 19.6062 8.47946 19.2023 7.99999 18.9258C7.52052 18.6492 6.97387 18.5106 6.42054 18.5255C5.86721 18.5403 5.32878 18.7079 4.86482 19.0098C4.27381 18.4068 3.76141 17.7314 3.33982 16.9998ZM8.99982 17.1958C10.0654 17.8105 10.8667 18.7968 11.2498 19.9658C11.7488 20.0128 12.2498 20.0138 12.7488 19.9668C13.1322 18.7977 13.9338 17.8113 14.9998 17.1968C16.065 16.5805 17.3203 16.3793 18.5248 16.6318C18.8148 16.2238 19.0648 15.7888 19.2728 15.3338C18.4522 14.4173 17.9989 13.23 17.9998 11.9998C17.9998 10.7398 18.4698 9.56282 19.2728 8.66582C19.0633 8.21097 18.8123 7.77646 18.5228 7.36782C17.3191 7.62013 16.0646 7.4193 14.9998 6.80382C13.9342 6.18919 13.133 5.20281 12.7498 4.03382C12.2508 3.98682 11.7498 3.98582 11.2508 4.03282C10.8674 5.20197 10.0658 6.18838 8.99982 6.80282C7.9346 7.41914 6.67929 7.62034 5.47482 7.36782C5.18538 7.77611 4.93495 8.21069 4.72682 8.66582C5.54739 9.58238 6.0007 10.7696 5.99982 11.9998C5.99982 13.2598 5.52982 14.4368 4.72682 15.3338C4.93629 15.7887 5.18736 16.2232 5.47682 16.6318C6.68053 16.3795 7.93502 16.5803 8.99982 17.1958ZM11.9998 14.9998C11.2042 14.9998 10.4411 14.6838 9.8785 14.1211C9.31589 13.5585 8.99982 12.7955 8.99982 11.9998C8.99982 11.2042 9.31589 10.4411 9.8785 9.8785C10.4411 9.31589 11.2042 8.99982 11.9998 8.99982C12.7955 8.99982 13.5585 9.31589 14.1211 9.8785C14.6837 10.4411 14.9998 11.2042 14.9998 11.9998C14.9998 12.7955 14.6837 13.5585 14.1211 14.1211C13.5585 14.6838 12.7955 14.9998 11.9998 14.9998ZM11.9998 12.9998C12.265 12.9998 12.5194 12.8945 12.7069 12.7069C12.8945 12.5194 12.9998 12.265 12.9998 11.9998C12.9998 11.7346 12.8945 11.4803 12.7069 11.2927C12.5194 11.1052 12.265 10.9998 11.9998 10.9998C11.7346 10.9998 11.4802 11.1052 11.2927 11.2927C11.1052 11.4803 10.9998 11.7346 10.9998 11.9998C10.9998 12.265 11.1052 12.5194 11.2927 12.7069C11.4802 12.8945 11.7346 12.9998 11.9998 12.9998Z" fill="#828282"/>
</svg>
