<svg width="18" height="18" viewBox="0 0 18 18" fill="none" xmlns="http://www.w3.org/2000/svg">
<path d="M4.371 5.2501L6.273 7.1521L5.2125 8.2126L1.5 4.5001L5.2125 0.787598L6.273 1.8481L4.371 3.7501H9.75C11.3413 3.7501 12.8674 4.38224 13.9926 5.50746C15.1179 6.63268 15.75 8.1588 15.75 9.7501C15.75 11.3414 15.1179 12.8675 13.9926 13.9927C12.8674 15.118 11.3413 15.7501 9.75 15.7501H3V14.2501H9.75C10.9435 14.2501 12.0881 13.776 12.932 12.9321C13.7759 12.0882 14.25 10.9436 14.25 9.7501C14.25 8.55662 13.7759 7.41203 12.932 6.56812C12.0881 5.7242 10.9435 5.2501 9.75 5.2501H4.371Z" fill="black"/>
</svg>
