<svg width="24" height="24" viewBox="0 0 24 24" fill="none" xmlns="http://www.w3.org/2000/svg">
<path d="M6 21.4999C4.067 21.4999 2.5 19.9329 2.5 17.9999C2.5 16.0669 4.067 14.4999 6 14.4999C7.585 14.4999 8.924 15.5539 9.355 16.9999H15V14.9999H17V9.24186L14.757 6.99986H9V8.99986H3V2.99986H9V4.99986H14.757L18 1.75586L22.243 5.99986L19 9.24086V14.9999H21V20.9999H15V18.9999H9.355C8.925 20.4459 7.585 21.4999 6 21.4999ZM6 16.4999C5.172 16.4999 4.5 17.1719 4.5 17.9999C4.5 18.8279 5.172 19.4999 6 19.4999C6.828 19.4999 7.5 18.8279 7.5 17.9999C7.5 17.1719 6.828 16.4999 6 16.4999ZM19 16.9999H17V18.9999H19V16.9999ZM18 4.58586L16.586 5.99986L18 7.41386L19.414 5.99986L18 4.58586ZM7 4.99986H5V6.99986H7V4.99986Z" fill="#35B8BE"/>
</svg>
